<?xml version="1.0" encoding="UTF-8"?>
<svg id="Layer_1" data-name="Layer 1" xmlns="http://www.w3.org/2000/svg" viewBox="0 0 455.83 456.35">
  <defs>
    <style>
      .cls-1 {
        fill: #fff;
      }
    </style>
  </defs>
  <path class="cls-1" d="M237.1,3.17l10.44.72c129.33,11.03,224.4,132.86,202.58,261.4-18.23,107.35-109.05,186.28-218.42,187.63-.41,0-1.07-.15-1.32.24h-5.28c-.25-.4-.91-.24-1.32-.24-113.47-1.19-210.16-90.92-220.41-203.64l-.72-10.44c.16-5.91-.21-11.86,0-17.76C6.84,104.25,101.82,7.21,219.1,3.17h18ZM196.31,245.57h9.36v-6.96h9c.24.15.31.33.36.6.37,2.03.32,4.52.48,6.6l8.16.24v-7.92h8.88l1.58,8.17,8.02-.25-.24-7.44h8.88l.27,6.69,9.52.69,1.03-1.74-.74-4.92,2.72-.28.37-.35c.63-6.59.56-13.92,4.4-19.6,11.12-16.46,38.91-9.4,47.1-29.93,3.58-8.96-1.04-15.73-2.03-24.36-.45-3.91.03-7.86-.49-11.75l.02-12.5c.13-3.51-1.22-8.17-.97-11.51.11-1.48,1-3.17,1.2-4.68.13-.1.35.27.44.4.57.83,4.25,8.33,4.48,9.19.44,1.65.3,3.89.62,5.62l.44,1.83c9.14-44-27.73-83.91-68.67-92.95s-91.45,10.54-109.18,50.31c-5.24,11.75-8.34,30.39-4.28,42.77.27.81,2.35,6.5,2.64,6.72.95.74.75-2.25.74-2.66-.23-6.28-2.35-14.07.28-20.1,1.06-2.43,2.75-2.87,4.07-.33,2.58,4.96,1.41,17.3-.58,22.54-.69,1.83-2.12,3.59-2.32,5.6-.22,2.26.58,5.34.69,7.66.46,9.77-5.85,17.6-1.64,27.56,8.06,19.1,33.38,14.52,45.81,28.83,5.22,6.02,6.94,13.6,6.74,21.46l3.58.99-.72,5.76ZM242.14,255.65h-8.64v7.92l-10.08-.36-.48-1.2.73-6.37h-8.64l-.72,7.68-8.61.21-.75-7.89h-7.92c1.93,5.71-6.48,6.19-9.22,3.11-1.48-1.67-5.38-9.39-5.92-11.59-1.25-5.06-.26-10.27-.93-15.39-.64-4.84-2.86-6.35-6.64-8.96-.3-.21-2.33-1.65-2.47-1.48l1.31,37.69c12.13,20.14,38.69,32.13,61.92,29.99,13.84-1.28,36.27-12.96,45.36-23.51,5.24-6.08,4.09-9.72,4.43-17.17.37-8.16.66-16.31.96-24.48.03-.89.53-1.86.13-2.75-.53.02-6.93,4.49-7.57,5.15-3.56,3.71-1.97,16.32-3.76,21.68-1.14,3.41-4.52,5.41-5.52,8.4-.83,2.48-.33,6.37-3.81,6.75-4.58.49-7.18-4.25-5.13-8.13l-9.36.72.69,6.61-.5,1.01-8.58-.43-.24-7.2ZM170.34,289.32c-11.32.89-29.44,12.6-38.56,19.51-15.81,11.98-31.59,29.26-41.1,46.73-1.76,3.23-2.4,3.35-.06,6.62,1.79,2.5,4.57,5.21,6.81,7.34,35.16,33.52,78.6,51.97,127.55,52.67,51.44.73,97.08-17.88,134.01-53.15,1.83-1.75,6.98-6.77,7.56-9,.62-2.41-1.98-6.23-3.24-8.29-14.16-23.21-45.76-53.77-72.42-61.01-19.26-5.23-27,4.59-43.96,8.45-13.18,3.01-27.78,2.81-40.85-.67s-21.56-10.34-35.75-9.22Z"/>
  <path class="cls-1" d="M268.25,129c23.59-1.99,41.77,23.08,28.8,44.16-10.74,17.47-37.02,19.58-49.72,3.02-14.49-18.88-2.55-45.2,20.92-47.18Z"/>
  <path class="cls-1" d="M183.54,129c17.76-1.37,35.02,15.48,31.37,33.54-7.21,35.68-62.58,32.53-59.64-7.33,1.02-13.86,14.92-25.18,28.26-26.21Z"/>
  <path class="cls-1" d="M227.05,208.4c-2.05,5.82-10.15,11.17-14.23,3.97s.59-14.82,4.74-21.02c3.73-5.57,9.04-14.05,16.29-7.46,2.84,2.58,10.71,15.12,11.72,18.76,1.87,6.8-4.51,18-12.15,11.92-1.62-1.29-3.82-5.51-5.43-6.09-.25-.09-.73-.21-.94-.08Z"/>
</svg>